<svg width="116" height="118" viewBox="0 0 116 118" fill="none" xmlns="http://www.w3.org/2000/svg">
<circle opacity="0.15" cx="45" cy="45" r="45" transform="matrix(-1 0 0 1 103 0)" fill="url(#paint0_linear_5102_9935)" fill-opacity="0.991703"/>
<g filter="url(#filter0_d_5102_9935)">
<circle cx="33" cy="33" r="33" transform="matrix(-1 0 0 1 91 12)" fill="url(#paint1_linear_5102_9935)" fill-opacity="0.991703"/>
</g>
<path d="M70.9778 29.7841C71.5721 29.168 72.5607 29.1734 73.1483 29.796L73.7088 30.39C74.2586 30.9726 74.2536 31.8844 73.6974 32.4609L61.5726 45.0298C61.3857 45.2235 61.3857 45.5304 61.5726 45.7241L73.6974 58.293C74.2536 58.8695 74.2586 59.7813 73.7088 60.3639L73.1483 60.9579C72.5607 61.5805 71.5721 61.5859 70.9778 60.9698L56.9405 46.4184C56.3799 45.8373 56.3799 44.9167 56.9405 44.3355L70.9778 29.7841ZM56.3472 29.7841C56.9415 29.168 57.9301 29.1734 58.5177 29.796L59.0782 30.39C59.628 30.9726 59.623 31.8844 59.0668 32.4609L46.942 45.0298C46.7552 45.2235 46.7552 45.5304 46.942 45.7241L59.0668 58.293C59.623 58.8695 59.628 59.7813 59.0782 60.3639L58.5177 60.9579C57.9301 61.5805 56.9415 61.5859 56.3472 60.9698L42.3099 46.4184C41.7493 45.8373 41.7493 44.9167 42.3099 44.3355L56.3472 29.7841Z" fill="white" stroke="white"/>
<defs>
<filter id="filter0_d_5102_9935" x="0" y="2" width="116" height="116" filterUnits="userSpaceOnUse" color-interpolation-filters="sRGB">
<feFlood flood-opacity="0" result="BackgroundImageFix"/>
<feColorMatrix in="SourceAlpha" type="matrix" values="0 0 0 0 0 0 0 0 0 0 0 0 0 0 0 0 0 0 127 0" result="hardAlpha"/>
<feOffset dy="15"/>
<feGaussianBlur stdDeviation="12.5"/>
<feColorMatrix type="matrix" values="0 0 0 0 0.9 0 0 0 0 0.19875 0 0 0 0 0.36705 0 0 0 0.25 0"/>
<feBlend mode="normal" in2="BackgroundImageFix" result="effect1_dropShadow_5102_9935"/>
<feBlend mode="normal" in="SourceGraphic" in2="effect1_dropShadow_5102_9935" result="shape"/>
</filter>
<linearGradient id="paint0_linear_5102_9935" x1="90" y1="0" x2="-9.03419" y2="11.38" gradientUnits="userSpaceOnUse">
<stop stop-color="#E25E66"/>
<stop offset="1" stop-color="#E6335E"/>
</linearGradient>
<linearGradient id="paint1_linear_5102_9935" x1="66" y1="0" x2="-6.62507" y2="8.34531" gradientUnits="userSpaceOnUse">
<stop stop-color="#FF9AA0"/>
<stop offset="1" stop-color="#F94973"/>
</linearGradient>
</defs>
</svg>
