<svg width="48" height="49" viewBox="0 0 48 49" fill="none" xmlns="http://www.w3.org/2000/svg">
<path d="M36 10.5C38.2091 10.5 40 12.2909 40 14.5V38.5C40 40.7091 38.2091 42.5 36 42.5H30M8 20.5V14.5C8 12.2909 9.79086 10.5 12 10.5H18M18 6.5V14.5M30 6.5V14.5M40 22.5H30M16 30.9V34.275L14.2 36.3M30 10.5H24M7 34.5C7 39.4706 11.0294 43.5 16 43.5C20.9706 43.5 25 39.4706 25 34.5C25 29.5294 20.9706 25.5 16 25.5C11.0294 25.5 7 29.5294 7 34.5Z" stroke="#1B2B7C" stroke-width="2" stroke-linecap="round" stroke-linejoin="round"/>
</svg>
