<svg width="49" height="49" viewBox="0 0 49 49" fill="none" xmlns="http://www.w3.org/2000/svg">
<path d="M30.5 38.5C30.5 40.7091 32.2909 42.5 34.5 42.5C36.7091 42.5 38.5 40.7091 38.5 38.5C38.5 36.2909 36.7091 34.5 34.5 34.5H15.2346C14.2393 34.5 13.3954 33.7681 13.2547 32.7828M36.5 28.5H12.6429L9.5 6.5H4.5M18.5 10.5H42.5L38.5 22.5M22.5 38.5C22.5 40.7091 20.7091 42.5 18.5 42.5C16.2909 42.5 14.5 40.7091 14.5 38.5C14.5 36.2909 16.2909 34.5 18.5 34.5C20.7091 34.5 22.5 36.2909 22.5 38.5Z" stroke="#1B2B7C" stroke-width="2" stroke-linecap="round" stroke-linejoin="round"/>
</svg>
