<svg width="48" height="49" viewBox="0 0 48 49" fill="none" xmlns="http://www.w3.org/2000/svg">
<path d="M43 24.5C43 23.9477 42.5523 23.5 42 23.5C41.4477 23.5 41 23.9477 41 24.5H43ZM25 12.5C25 11.9477 24.5523 11.5 24 11.5C23.4477 11.5 23 11.9477 23 12.5H25ZM23 16.5C23 17.0523 23.4477 17.5 24 17.5C24.5523 17.5 25 17.0523 25 16.5H23ZM25 32.5C25 31.9477 24.5523 31.5 24 31.5C23.4477 31.5 23 31.9477 23 32.5H25ZM23 36.5C23 37.0523 23.4477 37.5 24 37.5C24.5523 37.5 25 37.0523 25 36.5H23ZM30 17.5C30.5523 17.5 31 17.0523 31 16.5C31 15.9477 30.5523 15.5 30 15.5V17.5ZM22 16.5V15.5V16.5ZM26 32.5V31.5V32.5ZM18 31.5C17.4477 31.5 17 31.9477 17 32.5C17 33.0523 17.4477 33.5 18 33.5V31.5ZM26 24.5V23.5V24.5ZM22 24.5V23.5V24.5ZM20.4693 16.8045L20.0866 15.8806L20.4693 16.8045ZM18.3045 18.9693L17.3806 18.5866L18.3045 18.9693ZM18.3045 22.0307L17.3806 22.4134L18.3045 22.0307ZM19.1716 23.3284L19.8787 22.6213L19.1716 23.3284ZM20.4693 24.1955L20.0866 25.1194L20.4693 24.1955ZM27.5307 32.1955L27.9134 33.1194L27.5307 32.1955ZM29.6955 30.0307L30.6194 30.4134L29.6955 30.0307ZM29.6955 26.9693L30.6194 26.5866L29.6955 26.9693ZM28.8284 25.6716L28.1213 26.3787L28.8284 25.6716ZM27.5307 24.8045L27.9134 23.8806L27.5307 24.8045ZM38.1673 15.1003C38.4731 15.5602 39.0938 15.6851 39.5537 15.3793C40.0136 15.0736 40.1385 14.4528 39.8327 13.9929L38.1673 15.1003ZM8.16727 35.0071C8.47305 35.467 9.09377 35.5919 9.55367 35.2861C10.0136 34.9803 10.1385 34.3596 9.83273 33.8997L8.16727 35.0071ZM18.3332 40.5329C17.8125 40.3489 17.2412 40.6218 17.0572 41.1425C16.8731 41.6632 17.146 42.2346 17.6668 42.4186L18.3332 40.5329ZM41 24.5C41 33.8888 33.3888 41.5 24 41.5V43.5C34.4934 43.5 43 34.9934 43 24.5H41ZM7 24.5C7 15.1112 14.6112 7.5 24 7.5V5.5C13.5066 5.5 5 14.0066 5 24.5H7ZM23 12.5V16.5H25V12.5H23ZM23 32.5V36.5H25V32.5H23ZM30 15.5H22V17.5H30V15.5ZM26 31.5H18V33.5H26V31.5ZM26 23.5H22V25.5H26V23.5ZM22 15.5C21.3434 15.5 20.6932 15.6293 20.0866 15.8806L20.8519 17.7284C21.2159 17.5776 21.606 17.5 22 17.5V15.5ZM20.0866 15.8806C19.48 16.1319 18.9288 16.5002 18.4645 16.9645L19.8787 18.3787C20.1573 18.1001 20.488 17.8791 20.8519 17.7284L20.0866 15.8806ZM18.4645 16.9645C18.0002 17.4288 17.6319 17.98 17.3806 18.5866L19.2284 19.3519C19.3791 18.988 19.6001 18.6573 19.8787 18.3787L18.4645 16.9645ZM17.3806 18.5866C17.1293 19.1932 17 19.8434 17 20.5H19C19 20.106 19.0776 19.7159 19.2284 19.3519L17.3806 18.5866ZM17 20.5C17 21.1566 17.1293 21.8068 17.3806 22.4134L19.2284 21.6481C19.0776 21.2841 19 20.894 19 20.5H17ZM17.3806 22.4134C17.6319 23.02 18.0002 23.5712 18.4645 24.0355L19.8787 22.6213C19.6001 22.3427 19.3791 22.012 19.2284 21.6481L17.3806 22.4134ZM18.4645 24.0355C18.9288 24.4998 19.48 24.8681 20.0866 25.1194L20.852 23.2716C20.488 23.1209 20.1573 22.8999 19.8787 22.6213L18.4645 24.0355ZM20.0866 25.1194C20.6932 25.3707 21.3434 25.5 22 25.5V23.5C21.606 23.5 21.2159 23.4224 20.852 23.2716L20.0866 25.1194ZM26 33.5C26.6566 33.5 27.3068 33.3707 27.9134 33.1194L27.1481 31.2716C26.7841 31.4224 26.394 31.5 26 31.5V33.5ZM27.9134 33.1194C28.52 32.8681 29.0712 32.4998 29.5355 32.0355L28.1213 30.6213C27.8427 30.8999 27.512 31.1209 27.1481 31.2716L27.9134 33.1194ZM29.5355 32.0355C29.9998 31.5712 30.3681 31.02 30.6194 30.4134L28.7716 29.6481C28.6209 30.012 28.3999 30.3427 28.1213 30.6213L29.5355 32.0355ZM30.6194 30.4134C30.8707 29.8068 31 29.1566 31 28.5H29C29 28.894 28.9224 29.2841 28.7716 29.6481L30.6194 30.4134ZM31 28.5C31 27.8434 30.8707 27.1932 30.6194 26.5866L28.7716 27.3519C28.9224 27.7159 29 28.106 29 28.5H31ZM30.6194 26.5866C30.3681 25.98 29.9998 25.4288 29.5355 24.9645L28.1213 26.3787C28.3999 26.6573 28.6209 26.988 28.7716 27.3519L30.6194 26.5866ZM29.5355 24.9645C29.0712 24.5002 28.52 24.1319 27.9134 23.8806L27.1481 25.7284C27.512 25.8791 27.8427 26.1001 28.1213 26.3787L29.5355 24.9645ZM27.9134 23.8806C27.3068 23.6293 26.6566 23.5 26 23.5V25.5C26.394 25.5 26.7841 25.5776 27.1481 25.7284L27.9134 23.8806ZM24 7.5C29.9121 7.5 35.12 10.5171 38.1673 15.1003L39.8327 13.9929C36.4305 8.87593 30.6097 5.5 24 5.5V7.5ZM9.83273 33.8997C8.04289 31.2078 7 27.9772 7 24.5H5C5 28.3832 6.16603 31.9972 8.16727 35.0071L9.83273 33.8997ZM24 41.5C22.0113 41.5 20.1044 41.1589 18.3332 40.5329L17.6668 42.4186C19.649 43.1192 21.7811 43.5 24 43.5V41.5Z" fill="#1B2B7C"/>
</svg>
