<svg width="18" height="18" viewBox="0 0 18 18" fill="none" xmlns="http://www.w3.org/2000/svg">
<path d="M2.2549 1.15916L2.07812 0.982384L1.90135 1.15916L0.823223 2.23729L0.646447 2.41406L0.823223 2.59084L7.23238 9L0.823223 15.4092L0.646447 15.5859L0.823223 15.7627L1.90135 16.8408L2.07812 17.0176L2.2549 16.8408L8.66406 10.4317L15.0732 16.8408L15.25 17.0176L15.4268 16.8408L16.5049 15.7627L16.6817 15.5859L16.5049 15.4092L10.0957 9L16.5049 2.59084L16.6817 2.41406L16.5049 2.23729L15.4268 1.15916L15.25 0.982384L15.0732 1.15916L8.66406 7.56832L2.2549 1.15916Z" fill="#1B2B7C" stroke="#1B2B7C" stroke-width="0.5"/>
</svg>
