<svg width="151" height="150" viewBox="0 0 151 150" fill="none" xmlns="http://www.w3.org/2000/svg">
<path d="M31.75 18.75V15.75C30.0931 15.75 28.75 17.0931 28.75 18.75H31.75ZM119.25 131.25V134.25C120.907 134.25 122.25 132.907 122.25 131.25H119.25ZM31.75 131.25H28.75C28.75 132.907 30.0931 134.25 31.75 134.25V131.25ZM88 18.75L90.1213 16.6287C89.5587 16.0661 88.7957 15.75 88 15.75V18.75ZM119.25 50H122.25C122.25 49.2044 121.934 48.4413 121.371 47.8787L119.25 50ZM96.3721 77.1213C97.5437 75.9497 97.5437 74.0503 96.3721 72.8787C95.2005 71.7071 93.301 71.7071 92.1294 72.8787L96.3721 77.1213ZM68.0005 101.25L65.8792 103.372C67.0508 104.543 68.9503 104.543 70.1218 103.372L68.0005 101.25ZM58.8715 87.8788C57.6999 86.7073 55.8005 86.7073 54.6289 87.8789C53.4573 89.0504 53.4573 90.9499 54.6289 92.1215L58.8715 87.8788ZM28.75 31.25C28.75 32.9069 30.0931 34.25 31.75 34.25C33.4069 34.25 34.75 32.9069 34.75 31.25H28.75ZM34.75 56.25C34.75 54.5931 33.4069 53.25 31.75 53.25C30.0931 53.25 28.75 54.5931 28.75 56.25H34.75ZM116.25 75C116.25 76.6569 117.593 78 119.25 78C120.907 78 122.25 76.6569 122.25 75H116.25ZM122.25 100C122.25 98.3431 120.907 97 119.25 97C117.593 97 116.25 98.3431 116.25 100H122.25ZM119.25 128.25H31.75V134.25H119.25V128.25ZM31.75 21.75H88V15.75H31.75V21.75ZM85.8787 20.8713L117.129 52.1213L121.371 47.8787L90.1213 16.6287L85.8787 20.8713ZM78.75 18.75V43.75H84.75V18.75H78.75ZM94.25 59.25H119.25V53.25H94.25V59.25ZM78.75 43.75C78.75 52.3104 85.6896 59.25 94.25 59.25V53.25C89.0033 53.25 84.75 48.9967 84.75 43.75H78.75ZM92.1294 72.8787L65.8792 99.1289L70.1218 103.372L96.3721 77.1213L92.1294 72.8787ZM54.6289 92.1215L65.8792 103.372L70.1218 99.1289L58.8715 87.8788L54.6289 92.1215ZM34.75 31.25V18.75H28.75V31.25H34.75ZM34.75 131.25V56.25H28.75V131.25H34.75ZM116.25 50V75H122.25V50H116.25ZM116.25 100V131.25H122.25V100H116.25Z" fill="#1B2B7C"/>
</svg>
