<svg width="80" height="79" viewBox="0 0 80 79" fill="none" xmlns="http://www.w3.org/2000/svg">
<path d="M16.9583 9.875V6.875C15.3014 6.875 13.9583 8.21815 13.9583 9.875H16.9583ZM63.0416 69.125V72.125C64.6984 72.125 66.0416 70.7819 66.0416 69.125H63.0416ZM16.9583 69.125H13.9583C13.9583 70.7819 15.3014 72.125 16.9583 72.125V69.125ZM46.5833 9.875L48.7046 7.75368C48.142 7.19107 47.3789 6.875 46.5833 6.875V9.875ZM63.0416 26.3333H66.0416C66.0416 25.5377 65.7255 24.7746 65.1629 24.212L63.0416 26.3333ZM51.9966 41.6213C53.1682 40.4497 53.1682 38.5503 51.9966 37.3787C50.8251 36.2071 48.9256 36.2071 47.754 37.3787L51.9966 41.6213ZM36.0502 53.3251L33.9289 55.4465C35.1005 56.618 37 56.618 38.1715 55.4464L36.0502 53.3251ZM32.2463 45.2787C31.0748 44.1072 29.1753 44.1072 28.0037 45.2788C26.8321 46.4504 26.8322 48.3499 28.0037 49.5214L32.2463 45.2787ZM13.9583 16.4583C13.9583 18.1152 15.3014 19.4583 16.9583 19.4583C18.6151 19.4583 19.9583 18.1152 19.9583 16.4583H13.9583ZM19.9583 29.625C19.9583 27.9681 18.6151 26.625 16.9583 26.625C15.3014 26.625 13.9583 27.9681 13.9583 29.625H19.9583ZM60.0416 39.5C60.0416 41.1569 61.3847 42.5 63.0416 42.5C64.6984 42.5 66.0416 41.1569 66.0416 39.5H60.0416ZM66.0416 52.6667C66.0416 51.0098 64.6984 49.6667 63.0416 49.6667C61.3847 49.6667 60.0416 51.0098 60.0416 52.6667H66.0416ZM63.0416 66.125H16.9583V72.125H63.0416V66.125ZM16.9583 12.875H46.5833V6.875H16.9583V12.875ZM44.4619 11.9963L60.9203 28.4547L65.1629 24.212L48.7046 7.75368L44.4619 11.9963ZM40.2916 9.875V23.0417H46.2916V9.875H40.2916ZM49.8749 32.625H63.0416V26.625H49.8749V32.625ZM40.2916 23.0417C40.2916 28.3344 44.5822 32.625 49.8749 32.625V26.625C47.8959 26.625 46.2916 25.0207 46.2916 23.0417H40.2916ZM47.754 37.3787L33.9289 51.2038L38.1715 55.4464L51.9966 41.6213L47.754 37.3787ZM28.0037 49.5214L33.9289 55.4465L38.1715 51.2038L32.2463 45.2787L28.0037 49.5214ZM19.9583 16.4583V9.875H13.9583V16.4583H19.9583ZM19.9583 69.125V29.625H13.9583V69.125H19.9583ZM60.0416 26.3333V39.5H66.0416V26.3333H60.0416ZM60.0416 52.6667V69.125H66.0416V52.6667H60.0416Z" fill="#1B2B7C"/>
</svg>
