<svg width="151" height="150" viewBox="0 0 151 150" fill="none" xmlns="http://www.w3.org/2000/svg">
<path d="M119.25 87.5C126.154 87.5 131.75 81.9036 131.75 75C131.75 68.0964 126.154 62.5 119.25 62.5C112.346 62.5 106.75 68.0964 106.75 75C106.75 81.9036 112.346 87.5 119.25 87.5ZM119.25 87.5V125M75.5 100C68.5964 100 63 105.596 63 112.5C63 119.404 68.5964 125 75.5 125C82.4036 125 88 119.404 88 112.5C88 105.596 82.4036 100 75.5 100ZM75.5 100V62.5M31.75 125V68.75M75.5 25V43.75M119.25 25V43.75M44.25 37.5C44.25 44.4036 38.6536 50 31.75 50C24.8464 50 19.25 44.4036 19.25 37.5C19.25 30.5964 24.8464 25 31.75 25C38.6536 25 44.25 30.5964 44.25 37.5Z" stroke="#1B2B7C" stroke-width="6" stroke-linecap="round"/>
</svg>
