<svg width="80" height="79" viewBox="0 0 80 79" fill="none" xmlns="http://www.w3.org/2000/svg">
<path d="M63.0417 46.0833C66.6775 46.0833 69.625 43.1358 69.625 39.5C69.625 35.8641 66.6775 32.9166 63.0417 32.9166C59.4058 32.9166 56.4583 35.8641 56.4583 39.5C56.4583 43.1358 59.4058 46.0833 63.0417 46.0833ZM63.0417 46.0833V65.8333M40 52.6666C36.3641 52.6666 33.4167 55.6141 33.4167 59.25C33.4167 62.8858 36.3641 65.8333 40 65.8333C43.6359 65.8333 46.5833 62.8858 46.5833 59.25C46.5833 55.6141 43.6359 52.6666 40 52.6666ZM40 52.6666V32.9166M16.9583 65.8333V36.2083M40 13.1666V23.0416M63.0417 13.1666V23.0416M23.5417 19.75C23.5417 23.3858 20.5942 26.3333 16.9583 26.3333C13.3225 26.3333 10.375 23.3858 10.375 19.75C10.375 16.1141 13.3225 13.1666 16.9583 13.1666C20.5942 13.1666 23.5417 16.1141 23.5417 19.75Z" stroke="#1B2B7C" stroke-width="6" stroke-linecap="round"/>
</svg>
