<svg width="151" height="150" viewBox="0 0 151 150" fill="none" xmlns="http://www.w3.org/2000/svg">
<path d="M123.379 127.121C124.55 128.293 126.45 128.293 127.621 127.121C128.793 125.95 128.793 124.05 127.621 122.879L123.379 127.121ZM101.331 100.953C102.505 99.783 102.508 97.8835 101.338 96.71C100.169 95.5364 98.2694 95.5331 97.0958 96.7027L101.331 100.953ZM109.122 74.4032C108.793 76.0269 109.842 77.6104 111.466 77.94C113.089 78.2696 114.673 77.2205 115.002 75.5968L109.122 74.4032ZM66.125 109.5C41.8935 109.5 22.25 89.8565 22.25 65.625H16.25C16.25 93.1702 38.5798 115.5 66.125 115.5V109.5ZM22.25 65.625C22.25 41.3935 41.8935 21.75 66.125 21.75V15.75C38.5798 15.75 16.25 38.0798 16.25 65.625H22.25ZM66.125 21.75C90.3565 21.75 110 41.3935 110 65.625H116C116 38.0798 93.6702 15.75 66.125 15.75V21.75ZM127.621 122.879L101.449 96.7063L97.2063 100.949L123.379 127.121L127.621 122.879ZM97.0958 96.7027C89.157 104.614 78.2144 109.5 66.125 109.5V115.5C79.8659 115.5 92.3137 109.939 101.331 100.953L97.0958 96.7027ZM110 65.625C110 68.6341 109.698 71.5694 109.122 74.4032L115.002 75.5968C115.657 72.3723 116 69.0372 116 65.625H110Z" fill="#1B2B7C"/>
</svg>
