<svg width="80" height="79" viewBox="0 0 80 79" fill="none" xmlns="http://www.w3.org/2000/svg">
<path d="M64.212 67.9547C65.3836 69.1262 67.2831 69.1262 68.4547 67.9547C69.6262 66.7831 69.6262 64.8836 68.4547 63.712L64.212 67.9547ZM54.6068 54.1742C55.7804 53.0046 55.7836 51.1051 54.6141 49.9315C53.4445 48.758 51.545 48.7547 50.3714 49.9243L54.6068 54.1742ZM56.3161 38.9032C55.9865 40.5269 57.0356 42.1104 58.6594 42.44C60.2831 42.7696 61.8666 41.7205 62.1962 40.0968L56.3161 38.9032ZM35.0625 56.25C23.0848 56.25 13.375 46.5402 13.375 34.5625H7.375C7.375 49.8539 19.7711 62.25 35.0625 62.25V56.25ZM13.375 34.5625C13.375 22.5848 23.0848 12.875 35.0625 12.875V6.875C19.7711 6.875 7.375 19.2711 7.375 34.5625H13.375ZM35.0625 12.875C47.0402 12.875 56.75 22.5848 56.75 34.5625H62.75C62.75 19.2711 50.3539 6.875 35.0625 6.875V12.875ZM68.4547 63.712L54.6705 49.9279L50.4279 54.1705L64.212 67.9547L68.4547 63.712ZM50.3714 49.9243C46.4456 53.8367 41.0388 56.25 35.0625 56.25V62.25C42.6902 62.25 49.6023 59.1616 54.6068 54.1742L50.3714 49.9243ZM56.75 34.5625C56.75 36.0519 56.6003 37.5032 56.3161 38.9032L62.1962 40.0968C62.5597 38.3061 62.75 36.455 62.75 34.5625H56.75Z" fill="#1B2B7C"/>
</svg>
