<svg width="569" height="674" viewBox="0 0 569 674" fill="none" xmlns="http://www.w3.org/2000/svg">
<path d="M200.148 646.508C235.919 651.662 276.582 641.633 302.1 629.015L285.659 593.539L176.535 538.97L200.148 646.508Z" fill="#FFD2D2"/>
<path d="M220.687 647.652C213.782 647.768 207.002 647.273 200.348 646.166L176.735 538.628L199.478 550.163C204.57 583.189 212.089 615.565 220.687 647.652Z" fill="#FFDEDE"/>
<path d="M250.909 645.044C270.487 641.533 288.533 635.541 302.371 628.943L285.929 593.467L223.982 577.987C230.099 595.422 242.168 628.602 250.909 645.044Z" fill="#FCCACA"/>
<path d="M213.578 446.392C238.947 428.902 262.791 429.449 294.188 460.339C325.657 491.5 363.843 515.37 352.928 530.721C341.672 545.875 323.055 586.41 280.197 594.715C215.802 606.768 139.825 497.944 213.578 446.392Z" fill="#FCCACA"/>
<path d="M324.595 553.34C312.938 564.844 294.039 564.417 282.535 552.761L149.199 415.379L210.23 356.254L327.731 514.352C336.664 526.119 335.389 542.933 324.595 553.34Z" fill="#646A89"/>
<path d="M177.243 424.048L154.056 446.445C140.064 460.02 117.443 459.724 103.868 445.732L90.3657 432.01C76.7908 418.019 77.0874 395.398 91.0788 381.823L114.266 359.426C128.258 345.851 150.879 346.148 164.454 360.139L177.956 373.861C191.531 387.852 191.235 410.474 177.243 424.048Z" fill="url(#paint0_linear_5104_41364)"/>
<path d="M177.243 424.048L154.056 446.445C140.064 460.02 117.443 459.724 103.868 445.732L90.3657 432.01C76.7908 418.019 77.0874 395.398 91.0788 381.823L114.266 359.426C128.258 345.851 150.879 346.148 164.454 360.139L177.956 373.861C191.531 387.852 191.235 410.474 177.243 424.048Z" fill="url(#paint1_linear_5104_41364)" fill-opacity="0.2"/>
<path d="M245.113 385.055L199.672 429.021C182.951 445.35 155.996 445.059 139.594 428.068L108.448 395.954C92.1183 379.232 92.4097 352.278 109.401 335.876L154.841 291.911C171.563 275.581 198.518 275.873 214.919 292.864L246.066 324.977C262.467 341.968 262.176 368.923 245.113 385.055Z" fill="url(#paint2_linear_5104_41364)"/>
<path d="M245.113 385.055L199.672 429.021C182.951 445.35 155.996 445.059 139.594 428.068L108.448 395.954C92.1183 379.232 92.4097 352.278 109.401 335.876L154.841 291.911C171.563 275.581 198.518 275.873 214.919 292.864L246.066 324.977C262.467 341.968 262.176 368.923 245.113 385.055Z" fill="url(#paint3_linear_5104_41364)" fill-opacity="0.2"/>
<path d="M471.819 304.658C371.63 338.439 311.808 340.597 258.302 392.214C222.058 427.357 112.216 314.025 148.461 278.881C206.492 222.584 210.325 164.624 242.288 68.2045L471.819 304.658Z" fill="url(#paint4_linear_5104_41364)"/>
<path d="M471.819 304.658C371.63 338.439 311.808 340.597 258.302 392.214C222.058 427.357 112.216 314.025 148.461 278.881C206.492 222.584 210.325 164.624 242.288 68.2045L471.819 304.658Z" fill="url(#paint5_linear_5104_41364)" fill-opacity="0.2"/>
<g filter="url(#filter0_d_5104_41364)">
<path d="M395.267 149.46C458.73 214.82 492.942 284.26 471.748 304.388C450.896 324.715 382.504 288.42 319.041 223.061C255.577 157.701 221.365 88.2614 242.559 68.1326C263.412 47.8064 331.876 84.371 395.267 149.46Z" fill="url(#paint6_linear_5104_41364)" fill-opacity="0.991703"/>
</g>
<g filter="url(#filter1_d_5104_41364)">
<path d="M436.834 307.018C450.624 311.314 461.218 299.115 456.46 285.477C445.669 254.542 417.61 212.471 378.516 172.155C336.307 128.59 291.974 97.9607 260.788 88.3698C246.991 84.1266 236.409 96.36 241.162 109.99C251.948 140.927 280.011 183.006 319.112 223.33C361.217 266.639 405.683 297.314 436.834 307.018Z" fill="url(#paint7_linear_5104_41364)" fill-opacity="0.991703"/>
</g>
<path d="M484.085 321.312C455.832 348.534 375.302 311.157 303.917 237.805C232.532 164.454 197.568 82.4995 225.82 55.2775C254.073 28.0555 334.603 65.4328 405.988 138.784C477.445 212.405 512.337 294.09 484.085 321.312ZM395.266 149.46C331.802 84.101 263.681 47.7339 242.559 68.1323C221.706 88.4585 255.918 157.898 319.04 223.06C382.503 288.419 450.625 324.786 471.747 304.388C492.941 284.259 458.46 214.891 395.266 149.46Z" fill="white"/>
<g opacity="0.5">
<path opacity="0.5" d="M396.294 138.203C332.831 72.8435 264.709 36.4764 243.587 56.8748C238.989 61.2858 237.073 68.1571 237.425 77.0216C238.518 73.5498 240.025 70.5451 242.36 68.4744C263.212 48.1482 331.604 84.4431 395.067 149.802C444.542 200.703 476.181 254.07 477.782 284.853C485.715 257.296 452.52 195.964 396.294 138.203Z" fill="#6347AD"/>
<path opacity="0.5" d="M485.382 309.982C457.129 337.204 376.599 299.827 305.214 226.475C250.915 170.51 217.522 109.52 217.494 71.6688C209.5 107.624 243.962 175.841 304.185 237.733C375.57 311.085 456.172 348.731 484.352 321.24C491.016 314.83 494.241 305.296 493.975 293.519C492.599 300.245 489.71 305.643 485.382 309.982Z" fill="white"/>
</g>
<path d="M319.111 223.33C333.028 237.519 346.926 250.557 360.929 261.833L397.641 226.275L318.946 145.056L282.234 180.614C292.896 194.519 305.464 209.069 319.111 223.33Z" fill="url(#paint8_linear_5104_41364)"/>
<path d="M319.111 223.33C333.028 237.519 346.926 250.557 360.929 261.833L397.641 226.275L318.946 145.056L282.234 180.614C292.896 194.519 305.464 209.069 319.111 223.33Z" fill="url(#paint9_linear_5104_41364)" fill-opacity="0.2"/>
<path d="M371.414 172.613C393.324 195.064 404.897 218.84 397.839 225.933C390.78 233.026 367.137 220.287 345.299 198.106C323.389 175.656 311.816 151.88 318.874 144.787C326.202 137.621 349.503 150.162 371.414 172.613Z" fill="#6063C3"/>
<path d="M336.892 503.228C349.165 496.183 369.563 517.305 355.322 532.103C339.284 548.827 322.625 556.759 317.718 558.94C304.742 564.44 293.969 547.964 304.634 533.836C315.298 519.707 326.362 509.229 336.892 503.228Z" fill="#FFDEDE"/>
<path d="M317.645 558.67C322.552 556.489 339.211 548.557 355.249 531.833C361.103 525.64 361.184 518.393 358.174 512.553C357.582 513.579 356.72 514.676 355.589 515.847C339.551 532.571 322.892 540.503 317.986 542.684C311.264 545.641 305.255 542.628 302.317 537.057C295.77 550.371 305.748 563.881 317.645 558.67Z" fill="#FFD2D2"/>
<path d="M320.204 473.309C334.76 465.074 359.01 489.787 342.039 507.34C323.002 526.891 303.323 536.498 297.608 538.897C282.35 545.586 269.559 525.894 282.144 509.228C294.532 492.903 307.662 480.426 320.204 473.309Z" fill="#FFDEDE"/>
<path d="M297.339 538.969C303.324 536.498 322.733 526.963 341.77 507.412C349.223 499.635 348.798 490.501 344.618 483.529C344.623 487.862 342.669 492.432 338.807 496.357C319.77 515.908 300.092 525.515 294.377 527.914C287.116 531.015 280.567 528.146 276.82 522.792C276.547 534.714 286.25 543.963 297.339 538.969Z" fill="#FFD2D2"/>
<path d="M287.387 442.51C301.721 429.132 335.876 450.903 321.322 475.321C305.261 502.745 285.285 518.79 279.464 522.951C264.086 534.585 244.337 515.89 253.985 493.653C263.632 471.416 275.12 453.889 287.387 442.51Z" fill="#FFDEDE"/>
<path d="M279.193 523.023C285.211 518.521 304.918 502.547 320.979 475.124C326.308 465.893 325.147 457.245 320.428 450.418C320.144 453.673 318.979 456.875 317.005 460.294C300.944 487.717 280.968 503.763 275.147 507.923C266.452 514.299 256.45 511.488 251.172 503.655C250.384 521.205 266.222 532.857 279.193 523.023Z" fill="#FFD2D2"/>
<path d="M252.423 420.955C265.894 408.676 297.242 428.598 284.017 451.504C268.871 476.948 254.432 492.088 249.294 496.644C234.619 509.824 214.318 494.456 223.248 473.856C232.178 453.257 241.089 431.506 252.423 420.955Z" fill="#FFDEDE"/>
<path d="M249.295 496.644C254.432 492.088 268.871 476.949 284.017 451.505C290.603 440.492 286.437 430.337 279.219 423.891C280.52 428.744 279.933 434.103 276.505 439.646C261.359 465.09 246.92 480.23 241.782 484.785C235.047 490.925 227.188 490.719 221.304 487.093C223.352 500.127 237.889 506.925 249.295 496.644Z" fill="#FFD2D2"/>
<path d="M229.516 407.731C245.425 403.468 266.551 431.62 222.362 469.47C227.053 482.663 219.73 494.162 232.202 502.958C251.458 516.583 261.681 524.537 263.431 544.009C265.397 564.29 244.993 583.051 218.822 577.058C191.77 571.013 142.71 520.579 188.534 451.079C192.896 444.709 215.978 424.074 217.485 421.069C223.137 410.885 224.932 408.959 229.516 407.731Z" fill="#FFDEDE"/>
<path d="M218.822 577.058C245.262 582.979 265.667 564.217 263.431 544.009C261.339 524.339 251.189 516.655 232.202 502.958C219.658 493.892 226.783 482.735 222.362 469.47C266.551 431.62 245.425 403.468 229.516 407.731C229.247 407.803 228.707 407.947 228.438 408.02C237.996 416.729 240.199 438.97 208.224 466.322C212.915 479.515 205.593 491.014 218.064 499.81C237.321 513.435 247.544 521.389 249.294 540.861C251.366 559.379 246.253 569.419 218.822 577.058Z" fill="#FFD2D2"/>
<defs>
<filter id="filter0_d_5104_41364" x="211.283" y="52.5123" width="291.742" height="297.519" filterUnits="userSpaceOnUse" color-interpolation-filters="sRGB">
<feFlood flood-opacity="0" result="BackgroundImageFix"/>
<feColorMatrix in="SourceAlpha" type="matrix" values="0 0 0 0 0 0 0 0 0 0 0 0 0 0 0 0 0 0 127 0" result="hardAlpha"/>
<feOffset dy="15"/>
<feGaussianBlur stdDeviation="12.5"/>
<feColorMatrix type="matrix" values="0 0 0 0 0.9 0 0 0 0 0.19875 0 0 0 0 0.36705 0 0 0 0.25 0"/>
<feBlend mode="normal" in2="BackgroundImageFix" result="effect1_dropShadow_5104_41364"/>
<feBlend mode="normal" in="SourceGraphic" in2="effect1_dropShadow_5104_41364" result="shape"/>
</filter>
<filter id="filter1_d_5104_41364" x="215.008" y="77.5148" width="267.607" height="270.379" filterUnits="userSpaceOnUse" color-interpolation-filters="sRGB">
<feFlood flood-opacity="0" result="BackgroundImageFix"/>
<feColorMatrix in="SourceAlpha" type="matrix" values="0 0 0 0 0 0 0 0 0 0 0 0 0 0 0 0 0 0 127 0" result="hardAlpha"/>
<feOffset dy="15"/>
<feGaussianBlur stdDeviation="12.5"/>
<feColorMatrix type="matrix" values="0 0 0 0 0.9 0 0 0 0 0.19875 0 0 0 0 0.36705 0 0 0 0.25 0"/>
<feBlend mode="normal" in2="BackgroundImageFix" result="effect1_dropShadow_5104_41364"/>
<feBlend mode="normal" in="SourceGraphic" in2="effect1_dropShadow_5104_41364" result="shape"/>
</filter>
<linearGradient id="paint0_linear_5104_41364" x1="80.2993" y1="396.578" x2="146.262" y2="449.102" gradientUnits="userSpaceOnUse">
<stop offset="0.109375" stop-color="#646A89"/>
<stop offset="0.203125" stop-color="#717691"/>
<stop offset="0.322917" stop-color="#646A89"/>
<stop offset="1" stop-color="#646A89"/>
</linearGradient>
<linearGradient id="paint1_linear_5104_41364" x1="89.4497" y1="368.256" x2="146.473" y2="450.106" gradientUnits="userSpaceOnUse">
<stop offset="0.0499763" stop-color="#646A89"/>
<stop offset="0.708333" stop-color="#646A89"/>
<stop offset="0.864583" stop-color="#CBD1F0"/>
<stop offset="1" stop-color="#646A89"/>
</linearGradient>
<linearGradient id="paint2_linear_5104_41364" x1="118.514" y1="326.229" x2="219.039" y2="420.272" gradientUnits="userSpaceOnUse">
<stop offset="0.109375" stop-color="#646A89"/>
<stop offset="0.203125" stop-color="#7D829B"/>
<stop offset="0.322917" stop-color="#646A89"/>
<stop offset="1" stop-color="#646A89"/>
</linearGradient>
<linearGradient id="paint3_linear_5104_41364" x1="113.076" y1="331.491" x2="194.627" y2="425.291" gradientUnits="userSpaceOnUse">
<stop stop-color="#646A89"/>
<stop offset="0.708333" stop-color="#646A89"/>
<stop offset="0.864583" stop-color="#CBD1F0"/>
<stop offset="1" stop-color="#646A89"/>
</linearGradient>
<linearGradient id="paint4_linear_5104_41364" x1="199.724" y1="183.491" x2="309.117" y2="381.619" gradientUnits="userSpaceOnUse">
<stop stop-color="#1B2B7C"/>
<stop offset="0.677083" stop-color="#1B2B7C"/>
<stop offset="0.838542" stop-color="#3D4B92"/>
<stop offset="1" stop-color="#1B2B7C"/>
</linearGradient>
<linearGradient id="paint5_linear_5104_41364" x1="170.962" y1="201.089" x2="356.172" y2="327.223" gradientUnits="userSpaceOnUse">
<stop offset="0.0677083" stop-color="#1B2B7C"/>
<stop offset="0.203125" stop-color="#BAC5FF"/>
<stop offset="0.34375" stop-color="#1B2B7C"/>
<stop offset="1" stop-color="#1B2B7C"/>
</linearGradient>
<linearGradient id="paint6_linear_5104_41364" x1="229.867" y1="69.1414" x2="432.214" y2="30.424" gradientUnits="userSpaceOnUse">
<stop stop-color="#FF9AA0"/>
<stop offset="1" stop-color="#F94973"/>
</linearGradient>
<linearGradient id="paint7_linear_5104_41364" x1="234.461" y1="86.1971" x2="412.57" y2="51.2697" gradientUnits="userSpaceOnUse">
<stop stop-color="#FF9AA0"/>
<stop offset="1" stop-color="#F94973"/>
<stop offset="1" stop-color="#F94973"/>
</linearGradient>
<linearGradient id="paint8_linear_5104_41364" x1="293.774" y1="168.182" x2="375.345" y2="248.281" gradientUnits="userSpaceOnUse">
<stop stop-color="#1B2B7C"/>
<stop offset="0.723958" stop-color="#1B2B7C"/>
<stop offset="0.859375" stop-color="#5764AB"/>
<stop offset="1" stop-color="#1B2B7C"/>
</linearGradient>
<linearGradient id="paint9_linear_5104_41364" x1="294.154" y1="169.602" x2="371.517" y2="253.872" gradientUnits="userSpaceOnUse">
<stop stop-color="#1B2B7C"/>
<stop offset="0.1875" stop-color="#CBD3FF"/>
<stop offset="0.307292" stop-color="#1B2B7C"/>
<stop offset="1" stop-color="#1B2B7C"/>
</linearGradient>
</defs>
</svg>
