<svg width="80" height="79" viewBox="0 0 80 79" fill="none" xmlns="http://www.w3.org/2000/svg">
<path d="M47.5634 46.375C45.9065 46.375 44.5634 47.7181 44.5634 49.375C44.5634 51.0319 45.9065 52.375 47.5634 52.375V46.375ZM56.75 61.5616C56.75 63.2185 58.0931 64.5616 59.75 64.5616C61.4069 64.5616 62.75 63.2185 62.75 61.5616H56.75ZM17.25 61.5616C17.25 63.2185 18.5931 64.5616 20.25 64.5616C21.9069 64.5616 23.25 63.2185 23.25 61.5616H17.25ZM13.5376 36.538C13.7197 34.8911 12.5323 33.4085 10.8854 33.2265C9.23861 33.0445 7.75602 34.2319 7.57397 35.8787L13.5376 36.538ZM18.2493 15.183C17.0147 16.288 16.9096 18.1846 18.0146 19.4192C19.1196 20.6538 21.0162 20.7588 22.2507 19.6539L18.2493 15.183ZM36.7083 52.375C38.3652 52.375 39.7083 51.0319 39.7083 49.375C39.7083 47.7181 38.3652 46.375 36.7083 46.375V52.375ZM47.5634 52.375C52.637 52.375 56.75 56.488 56.75 61.5616H62.75C62.75 53.1743 55.9507 46.375 47.5634 46.375V52.375ZM32.4366 46.375C24.0493 46.375 17.25 53.1743 17.25 61.5616H23.25C23.25 56.488 27.363 52.375 32.4366 52.375V46.375ZM46.875 29.625C46.875 33.422 43.797 36.5 40 36.5V42.5C47.1107 42.5 52.875 36.7357 52.875 29.625H46.875ZM40 36.5C36.203 36.5 33.125 33.422 33.125 29.625H27.125C27.125 36.7357 32.8893 42.5 40 42.5V36.5ZM33.125 29.625C33.125 25.828 36.203 22.75 40 22.75V16.75C32.8893 16.75 27.125 22.5143 27.125 29.625H33.125ZM40 22.75C43.797 22.75 46.875 25.828 46.875 29.625H52.875C52.875 22.5143 47.1107 16.75 40 16.75V22.75ZM66.625 39.5C66.625 54.2046 54.7046 66.125 40 66.125V72.125C58.0183 72.125 72.625 57.5183 72.625 39.5H66.625ZM40 66.125C25.2954 66.125 13.375 54.2046 13.375 39.5H7.375C7.375 57.5183 21.9817 72.125 40 72.125V66.125ZM40 12.875C54.7046 12.875 66.625 24.7954 66.625 39.5H72.625C72.625 21.4817 58.0183 6.875 40 6.875V12.875ZM13.375 39.5C13.375 38.4977 13.4302 37.5095 13.5376 36.538L7.57397 35.8787C7.44242 37.0687 7.375 38.277 7.375 39.5H13.375ZM22.2507 19.6539C26.9632 15.4361 33.1789 12.875 40 12.875V6.875C31.6461 6.875 24.0192 10.0188 18.2493 15.183L22.2507 19.6539ZM32.4366 52.375H36.7083V46.375H32.4366V52.375Z" fill="#1B2B7C"/>
</svg>
