<svg width="151" height="150" viewBox="0 0 151 150" fill="none" xmlns="http://www.w3.org/2000/svg">
<path d="M89.8608 90.75C88.204 90.75 86.8608 92.0931 86.8608 93.75C86.8608 95.4069 88.204 96.75 89.8608 96.75V90.75ZM110 116.889C110 118.546 111.343 119.889 113 119.889C114.657 119.889 116 118.546 116 116.889H110ZM35 116.889C35 118.546 36.3431 119.889 38 119.889C39.6569 119.889 41 118.546 41 116.889H35ZM22.5751 69.0796C22.7572 67.4328 21.5698 65.9502 19.9229 65.7682C18.2761 65.5861 16.7935 66.7736 16.6115 68.4204L22.5751 69.0796ZM35.9993 30.8376C34.7647 31.9426 34.6596 33.8392 35.7646 35.0737C36.8696 36.3083 38.7662 36.4134 40.0007 35.3084L35.9993 30.8376ZM69.25 96.75C70.9069 96.75 72.25 95.4069 72.25 93.75C72.25 92.0931 70.9069 90.75 69.25 90.75V96.75ZM89.8608 96.75C100.983 96.75 110 105.767 110 116.889H116C116 102.453 104.297 90.75 89.8608 90.75V96.75ZM61.1392 90.75C46.7029 90.75 35 102.453 35 116.889H41C41 105.767 50.0166 96.75 61.1392 96.75V90.75ZM91.25 56.25C91.25 64.9485 84.1985 72 75.5 72V78C87.5122 78 97.25 68.2622 97.25 56.25H91.25ZM75.5 72C66.8015 72 59.75 64.9485 59.75 56.25H53.75C53.75 68.2622 63.4878 78 75.5 78V72ZM59.75 56.25C59.75 47.5515 66.8015 40.5 75.5 40.5V34.5C63.4878 34.5 53.75 44.2378 53.75 56.25H59.75ZM75.5 40.5C84.1985 40.5 91.25 47.5515 91.25 56.25H97.25C97.25 44.2378 87.5122 34.5 75.5 34.5V40.5ZM128.75 75C128.75 104.409 104.909 128.25 75.5 128.25V134.25C108.223 134.25 134.75 107.723 134.75 75H128.75ZM75.5 128.25C46.0908 128.25 22.25 104.409 22.25 75H16.25C16.25 107.723 42.7771 134.25 75.5 134.25V128.25ZM75.5 21.75C104.909 21.75 128.75 45.5908 128.75 75H134.75C134.75 42.2771 108.223 15.75 75.5 15.75V21.75ZM22.25 75C22.25 72.9978 22.3604 71.0225 22.5751 69.0796L16.6115 68.4204C16.3725 70.5817 16.25 72.7771 16.25 75H22.25ZM40.0007 35.3084C49.4237 26.8747 61.8598 21.75 75.5 21.75V15.75C60.3269 15.75 46.4797 21.4573 35.9993 30.8376L40.0007 35.3084ZM61.1392 96.75H69.25V90.75H61.1392V96.75Z" fill="#1B2B7C"/>
</svg>
