<svg width="80" height="79" viewBox="0 0 80 79" fill="none" xmlns="http://www.w3.org/2000/svg">
<path d="M52.6964 39.5C52.6964 46.512 47.012 52.1964 40 52.1964C32.988 52.1964 27.3036 46.512 27.3036 39.5C27.3036 32.488 32.988 26.8036 40 26.8036C47.012 26.8036 52.6964 32.488 52.6964 39.5ZM52.6964 39.5V43.7321C52.6964 48.4068 56.486 52.1964 61.1607 52.1964C64.1636 52.1964 66.8013 50.6327 68.3038 48.275C69.1403 46.9625 69.625 45.4039 69.625 43.7321V39.5C69.625 30.1936 65.3338 21.8894 58.6221 16.4583M40 9.875C23.6386 9.875 10.375 23.1386 10.375 39.5C10.375 55.8614 23.6386 69.125 40 69.125C46.2942 69.125 52.13 67.1621 56.9286 63.815" stroke="#1B2B7C" stroke-width="6" stroke-linecap="round" stroke-linejoin="round"/>
</svg>
