<svg width="151" height="150" viewBox="0 0 151 150" fill="none" xmlns="http://www.w3.org/2000/svg">
<path d="M99.6071 75C99.6071 88.314 88.814 99.1071 75.5 99.1071C62.186 99.1071 51.3929 88.314 51.3929 75C51.3929 61.686 62.186 50.8929 75.5 50.8929C88.814 50.8929 99.6071 61.686 99.6071 75ZM99.6071 75V83.0357C99.6071 91.9117 106.803 99.1071 115.679 99.1071C121.38 99.1071 126.389 96.138 129.241 91.6615C130.83 89.1693 131.75 86.21 131.75 83.0357V75C131.75 57.3296 123.602 41.5622 110.858 31.25M75.5 18.75C44.434 18.75 19.25 43.934 19.25 75C19.25 106.066 44.434 131.25 75.5 131.25C87.4511 131.25 98.5317 127.523 107.643 121.168" stroke="#1B2B7C" stroke-width="6" stroke-linecap="round" stroke-linejoin="round"/>
</svg>
