<svg width="151" height="150" viewBox="0 0 151 150" fill="none" xmlns="http://www.w3.org/2000/svg">
<path d="M38 31.25C31.0964 31.25 25.5 36.8464 25.5 43.75V118.75C25.5 125.654 31.0964 131.25 38 131.25H56.75M125.5 62.5V43.75C125.5 36.8464 119.904 31.25 113 31.25H94.25M94.25 18.75V43.75M56.75 18.75V43.75M25.5 68.75H56.75M100.5 95V105.547L106.125 111.875M56.75 31.25H75.5M128.625 106.25C128.625 121.783 116.033 134.375 100.5 134.375C84.967 134.375 72.375 121.783 72.375 106.25C72.375 90.717 84.967 78.125 100.5 78.125C116.033 78.125 128.625 90.717 128.625 106.25Z" stroke="#1B2B7C" stroke-width="6" stroke-linecap="round" stroke-linejoin="round"/>
</svg>
