<svg width="80" height="79" viewBox="0 0 80 79" fill="none" xmlns="http://www.w3.org/2000/svg">
<path d="M20.2498 16.4583C16.614 16.4583 13.6665 19.4058 13.6665 23.0417V62.5417C13.6665 66.1775 16.614 69.125 20.2498 69.125H30.1248M66.3332 32.9167V23.0417C66.3332 19.4058 63.3857 16.4583 59.7498 16.4583H49.8748M49.8748 9.875V23.0417M30.1248 9.875V23.0417M13.6665 36.2083H30.1248M53.1665 50.0333V55.588L56.129 58.9208M30.1248 16.4583H39.9998M67.979 55.9583C67.979 64.1391 61.3472 70.7708 53.1665 70.7708C44.9858 70.7708 38.354 64.1391 38.354 55.9583C38.354 47.7776 44.9858 41.1458 53.1665 41.1458C61.3472 41.1458 67.979 47.7776 67.979 55.9583Z" stroke="#1B2B7C" stroke-width="6" stroke-linecap="round" stroke-linejoin="round"/>
</svg>
