<svg width="54" height="67" viewBox="0 0 54 67" fill="none" xmlns="http://www.w3.org/2000/svg">
<path d="M3.95825 3.875V0.875C2.3014 0.875 0.958252 2.21815 0.958252 3.875L3.95825 3.875ZM50.0416 63.125V66.125C51.6984 66.125 53.0416 64.7819 53.0416 63.125H50.0416ZM3.95825 63.125H0.958252C0.958252 64.7819 2.3014 66.125 3.95825 66.125L3.95825 63.125ZM33.5833 3.875L35.7046 1.75368C35.142 1.19107 34.3789 0.875 33.5833 0.875V3.875ZM50.0416 20.3333H53.0416C53.0416 19.5377 52.7255 18.7746 52.1629 18.212L50.0416 20.3333ZM38.9966 35.6213C40.1682 34.4497 40.1682 32.5503 38.9966 31.3787C37.8251 30.2071 35.9256 30.2071 34.754 31.3787L38.9966 35.6213ZM23.0502 47.3251L20.9289 49.4465C22.1005 50.618 24 50.618 25.1715 49.4464L23.0502 47.3251ZM19.2463 39.2787C18.0748 38.1072 16.1753 38.1072 15.0037 39.2788C13.8321 40.4504 13.8322 42.3499 15.0037 43.5214L19.2463 39.2787ZM0.958252 10.4583C0.958252 12.1152 2.3014 13.4583 3.95825 13.4583C5.61511 13.4583 6.95825 12.1152 6.95825 10.4583H0.958252ZM6.95825 23.625C6.95825 21.9681 5.61511 20.625 3.95825 20.625C2.3014 20.625 0.958252 21.9681 0.958252 23.625H6.95825ZM47.0416 33.5C47.0416 35.1569 48.3847 36.5 50.0416 36.5C51.6984 36.5 53.0416 35.1569 53.0416 33.5H47.0416ZM53.0416 46.6667C53.0416 45.0098 51.6984 43.6667 50.0416 43.6667C48.3847 43.6667 47.0416 45.0098 47.0416 46.6667H53.0416ZM50.0416 60.125H3.95825V66.125H50.0416V60.125ZM3.95825 6.875H33.5833V0.875H3.95825V6.875ZM31.4619 5.99632L47.9203 22.4547L52.1629 18.212L35.7046 1.75368L31.4619 5.99632ZM27.2916 3.875V17.0417H33.2916V3.875H27.2916ZM36.8749 26.625H50.0416V20.625H36.8749V26.625ZM27.2916 17.0417C27.2916 22.3344 31.5822 26.625 36.8749 26.625V20.625C34.8959 20.625 33.2916 19.0207 33.2916 17.0417H27.2916ZM34.754 31.3787L20.9289 45.2038L25.1715 49.4464L38.9966 35.6213L34.754 31.3787ZM15.0037 43.5214L20.9289 49.4465L25.1715 45.2038L19.2463 39.2787L15.0037 43.5214ZM6.95825 10.4583V3.875H0.958252V10.4583H6.95825ZM6.95825 63.125V23.625H0.958252V63.125H6.95825ZM47.0416 20.3333V33.5H53.0416V20.3333H47.0416ZM47.0416 46.6667V63.125H53.0416V46.6667H47.0416Z" fill="#1B2B7C"/>
</svg>
