<svg width="151" height="150" viewBox="0 0 151 150" fill="none" xmlns="http://www.w3.org/2000/svg">
<path d="M38 31.25C31.0964 31.25 25.5 36.8464 25.5 43.75V93.75V118.75C25.5 125.654 31.0964 131.25 38 131.25H56.75M125.5 56.25V43.75C125.5 36.8464 119.904 31.25 113 31.25H94.25M94.25 18.75V43.75M56.75 18.75V43.75M25.5 68.75H56.75M125.5 131.25V125C125.5 118.096 119.904 112.5 113 112.5H88C81.0964 112.5 75.5 118.096 75.5 125V131.25M56.75 31.25H75.5M113 81.25C113 88.1536 107.404 93.75 100.5 93.75C93.5964 93.75 88 88.1536 88 81.25C88 74.3464 93.5964 68.75 100.5 68.75C107.404 68.75 113 74.3464 113 81.25Z" stroke="#1B2B7C" stroke-width="6" stroke-linecap="round" stroke-linejoin="round"/>
</svg>
