<svg width="80" height="79" viewBox="0 0 80 79" fill="none" xmlns="http://www.w3.org/2000/svg">
<path d="M16.958 9.875V6.875C15.3012 6.875 13.958 8.21815 13.958 9.875H16.958ZM63.0413 69.125V72.125C64.6982 72.125 66.0413 70.7819 66.0413 69.125H63.0413ZM16.958 69.125H13.958C13.958 70.7819 15.3012 72.125 16.958 72.125V69.125ZM46.583 9.875L48.7043 7.75368C48.1417 7.19107 47.3787 6.875 46.583 6.875V9.875ZM63.0413 26.3333H66.0413C66.0413 25.5377 65.7253 24.7746 65.1627 24.212L63.0413 26.3333ZM51.9964 41.6213C53.168 40.4497 53.168 38.5503 51.9964 37.3787C50.8248 36.2071 48.9253 36.2071 47.7538 37.3787L51.9964 41.6213ZM36.05 53.3251L33.9287 55.4465C35.1002 56.618 36.9997 56.618 38.1713 55.4464L36.05 53.3251ZM32.2461 45.2787C31.0745 44.1072 29.175 44.1072 28.0035 45.2788C26.8319 46.4504 26.8319 48.3499 28.0035 49.5214L32.2461 45.2787ZM13.958 16.4583C13.958 18.1152 15.3012 19.4583 16.958 19.4583C18.6149 19.4583 19.958 18.1152 19.958 16.4583H13.958ZM19.958 29.625C19.958 27.9681 18.6149 26.625 16.958 26.625C15.3012 26.625 13.958 27.9681 13.958 29.625H19.958ZM60.0413 39.5C60.0413 41.1569 61.3845 42.5 63.0413 42.5C64.6982 42.5 66.0413 41.1569 66.0413 39.5H60.0413ZM66.0413 52.6667C66.0413 51.0098 64.6982 49.6667 63.0413 49.6667C61.3845 49.6667 60.0413 51.0098 60.0413 52.6667H66.0413ZM63.0413 66.125H16.958V72.125H63.0413V66.125ZM16.958 12.875H46.583V6.875H16.958V12.875ZM44.4617 11.9963L60.92 28.4547L65.1627 24.212L48.7043 7.75368L44.4617 11.9963ZM40.2913 9.875V23.0417H46.2913V9.875H40.2913ZM49.8747 32.625H63.0413V26.625H49.8747V32.625ZM40.2913 23.0417C40.2913 28.3344 44.5819 32.625 49.8747 32.625V26.625C47.8957 26.625 46.2913 25.0207 46.2913 23.0417H40.2913ZM47.7538 37.3787L33.9286 51.2038L38.1713 55.4464L51.9964 41.6213L47.7538 37.3787ZM28.0035 49.5214L33.9287 55.4465L38.1713 51.2038L32.2461 45.2787L28.0035 49.5214ZM19.958 16.4583V9.875H13.958V16.4583H19.958ZM19.958 69.125V29.625H13.958V69.125H19.958ZM60.0413 26.3333V39.5H66.0413V26.3333H60.0413ZM60.0413 52.6667V69.125H66.0413V52.6667H60.0413Z" fill="#1B2B7C"/>
</svg>
