<svg width="151" height="150" viewBox="0 0 151 150" fill="none" xmlns="http://www.w3.org/2000/svg">
<path d="M96.2227 104.111L69.25 90.625M54.7775 66.6113L81.75 53.125M131.75 112.5C131.75 122.855 123.355 131.25 113 131.25C102.645 131.25 94.25 122.855 94.25 112.5C94.25 102.145 102.645 93.75 113 93.75C123.355 93.75 131.75 102.145 131.75 112.5ZM131.75 37.5C131.75 47.8553 123.355 56.25 113 56.25C102.645 56.25 94.25 47.8553 94.25 37.5C94.25 27.1447 102.645 18.75 113 18.75C123.355 18.75 131.75 27.1447 131.75 37.5ZM56.75 75C56.75 85.3553 48.3553 93.75 38 93.75C27.6447 93.75 19.25 85.3553 19.25 75C19.25 64.6447 27.6447 56.25 38 56.25C48.3553 56.25 56.75 64.6447 56.75 75Z" stroke="#1B2B7C" stroke-width="6" stroke-linecap="round" stroke-linejoin="round"/>
</svg>
