<svg width="80" height="79" viewBox="0 0 80 79" fill="none" xmlns="http://www.w3.org/2000/svg">
<path d="M50.9139 54.832L36.7083 47.7292M29.0861 35.0819L43.2917 27.9792M69.625 59.25C69.625 64.7038 65.2038 69.125 59.75 69.125C54.2962 69.125 49.875 64.7038 49.875 59.25C49.875 53.7962 54.2962 49.375 59.75 49.375C65.2038 49.375 69.625 53.7962 69.625 59.25ZM69.625 19.75C69.625 25.2038 65.2038 29.625 59.75 29.625C54.2962 29.625 49.875 25.2038 49.875 19.75C49.875 14.2962 54.2962 9.875 59.75 9.875C65.2038 9.875 69.625 14.2962 69.625 19.75ZM30.125 39.5C30.125 44.9538 25.7038 49.375 20.25 49.375C14.7962 49.375 10.375 44.9538 10.375 39.5C10.375 34.0462 14.7962 29.625 20.25 29.625C25.7038 29.625 30.125 34.0462 30.125 39.5Z" stroke="#1B2B7C" stroke-width="6" stroke-linecap="round" stroke-linejoin="round"/>
</svg>
