<svg width="151" height="150" viewBox="0 0 151 150" fill="none" xmlns="http://www.w3.org/2000/svg">
<path d="M131.75 75C131.75 106.066 106.566 131.25 75.5 131.25M131.75 75C131.75 43.934 106.566 18.75 75.5 18.75M131.75 75H19.25C19.25 106.066 44.434 131.25 75.5 131.25M75.5 131.25C75.5 131.25 100.5 112.5 100.5 75M75.5 131.25C75.5 131.25 50.5 112.5 50.5 75C50.5 37.5 75.5 18.75 75.5 18.75M75.5 18.75C75.5 18.75 89.3889 29.1667 96.4623 50M75.5 18.75C58.8406 18.75 43.8728 25.9922 33.573 37.5" stroke="#1B2B7C" stroke-width="6" stroke-linecap="round" stroke-linejoin="round"/>
</svg>
