<svg width="80" height="79" viewBox="0 0 80 79" fill="none" xmlns="http://www.w3.org/2000/svg">
<path d="M69.625 39.5C69.625 55.8614 56.3614 69.125 40 69.125M69.625 39.5C69.625 23.1386 56.3614 9.875 40 9.875M69.625 39.5H10.375C10.375 55.8614 23.6386 69.125 40 69.125M40 69.125C40 69.125 53.1667 59.25 53.1667 39.5M40 69.125C40 69.125 26.8333 59.25 26.8333 39.5C26.8333 19.75 40 9.875 40 9.875M40 9.875C40 9.875 47.3148 15.3611 51.0402 26.3333M40 9.875C31.2261 9.875 23.343 13.6892 17.9184 19.75" stroke="#1B2B7C" stroke-width="6" stroke-linecap="round" stroke-linejoin="round"/>
</svg>
