<svg width="80" height="79" viewBox="0 0 80 79" fill="none" xmlns="http://www.w3.org/2000/svg">
<path d="M20.2503 16.4583C16.6145 16.4583 13.667 19.4058 13.667 23.0417V49.375V62.5417C13.667 66.1775 16.6145 69.125 20.2503 69.125H30.1253M66.3337 29.625V23.0417C66.3337 19.4058 63.3862 16.4583 59.7503 16.4583H49.8753M49.8753 9.875V23.0417M30.1253 9.875V23.0417M13.667 36.2083H30.1253M66.3337 69.125V65.8333C66.3337 62.1975 63.3862 59.25 59.7503 59.25H46.5837C42.9478 59.25 40.0003 62.1975 40.0003 65.8333V69.125M30.1253 16.4583H40.0003M59.7503 42.7917C59.7503 46.4275 56.8029 49.375 53.167 49.375C49.5311 49.375 46.5837 46.4275 46.5837 42.7917C46.5837 39.1558 49.5311 36.2083 53.167 36.2083C56.8029 36.2083 59.7503 39.1558 59.7503 42.7917Z" stroke="#1B2B7C" stroke-width="6" stroke-linecap="round" stroke-linejoin="round"/>
</svg>
